<?xml version="1.0" encoding="UTF-8" standalone="no"?>
<!-- Created with Inkscape (http://www.inkscape.org/) -->

<svg
   xmlns:dc="http://purl.org/dc/elements/1.1/"
   xmlns:cc="http://creativecommons.org/ns#"
   xmlns:rdf="http://www.w3.org/1999/02/22-rdf-syntax-ns#"
   xmlns:svg="http://www.w3.org/2000/svg"
   xmlns="http://www.w3.org/2000/svg"
   xmlns:sodipodi="http://sodipodi.sourceforge.net/DTD/sodipodi-0.dtd"
   xmlns:inkscape="http://www.inkscape.org/namespaces/inkscape"
   width="121"
   height="121"
   id="svg5306"
   version="1.1"
   inkscape:version="0.48.4 r9939"
   sodipodi:docname="clearChart_black.svg">
  <defs
     id="defs5308" />
  <sodipodi:namedview
     id="base"
     pagecolor="#ffffff"
     bordercolor="#666666"
     borderopacity="1.0"
     inkscape:pageopacity="0.0"
     inkscape:pageshadow="2"
     inkscape:zoom="2.8"
     inkscape:cx="97.758232"
     inkscape:cy="52.852515"
     inkscape:document-units="px"
     inkscape:current-layer="layer1"
     showgrid="false"
     fit-margin-top="0"
     fit-margin-left="0"
     fit-margin-right="0"
     fit-margin-bottom="0"
     inkscape:window-width="1364"
     inkscape:window-height="717"
     inkscape:window-x="0"
     inkscape:window-y="0"
     inkscape:window-maximized="1" />
  <metadata
     id="metadata5311">
    <rdf:RDF>
      <cc:Work
         rdf:about="">
        <dc:format>image/svg+xml</dc:format>
        <dc:type
           rdf:resource="http://purl.org/dc/dcmitype/StillImage" />
        <dc:title />
      </cc:Work>
    </rdf:RDF>
  </metadata>
  <g
     inkscape:label="Layer 1"
     inkscape:groupmode="layer"
     id="layer1"
     transform="translate(-259.5,-383.28125)">
    <g
       transform="translate(-247.53452,19.753644)"
       id="g4680">
      <g
         style="fill:#000000;fill-opacity:1"
         id="g4650">
        <path
           inkscape:connector-curvature="0"
           id="path4642"
           d="m 517.78125,382 a 5.0005,5.0005 0 0 0 -4.9375,5.0625 l 0,73.9375 a 5.0005,5.0005 0 0 0 5,5 L 615,466 a 5.0005,5.0005 0 1 0 0,-10 l -92.15625,0 0,-68.9375 A 5.0005,5.0005 0 0 0 517.78125,382 z"
           style="font-size:medium;font-style:normal;font-variant:normal;font-weight:normal;font-stretch:normal;text-indent:0;text-align:start;text-decoration:none;line-height:normal;letter-spacing:normal;word-spacing:normal;text-transform:none;direction:ltr;block-progression:tb;writing-mode:lr-tb;text-anchor:start;baseline-shift:baseline;color:#000000;fill:#000000;fill-opacity:1;stroke:none;stroke-width:10;marker:none;visibility:visible;display:inline;overflow:visible;enable-background:accumulate;font-family:Sans;-inkscape-font-specification:Sans" />
      </g>
      <g
         style="fill:#000000;fill-opacity:1"
         id="g4662">
        <path
           inkscape:connector-curvature="0"
           id="path4644"
           d="m 558.5625,390.71875 a 5.0015623,5.0015623 0 1 0 0.25,10 c 0,0 29.44369,1.08235 46.46875,22.59375 1.08941,1.37649 1.66975,2.05827 2.53125,3.125 -8.06682,0.12461 -21.1275,1.75856 -38,10.84375 -10.2358,5.51159 -16.24787,8.46792 -18.59375,9.09375 -0.13841,0.0369 -0.0886,0.008 -0.1875,0.0312 -0.0515,-0.10051 -0.0599,-0.0725 -0.125,-0.21875 -0.91046,-2.04565 -2.30991,-7.16396 -5.84375,-13.4375 -3.53384,-6.27354 -9.32619,-13.82297 -19.3125,-22.0625 a 5.0054901,5.0054901 0 1 0 -6.375,7.71875 c 9.14345,7.5441 14.02341,14.02122 16.96875,19.25 2.94534,5.22878 3.85415,9.06746 5.4375,12.625 0.79168,1.77877 1.92396,3.9123 4.375,5.25 2.45104,1.3377 5.24236,1.14397 7.65625,0.5 4.82779,-1.28794 10.46708,-4.40054 20.75,-9.9375 19.62802,-10.56894 31.90358,-9.93512 38.25,-9.59375 1.58661,0.0853 2.5804,0.33346 4.59375,-0.0312 1.00668,-0.18235 3.08182,-0.75363 4.21875,-3 1.13693,-2.24637 0.44838,-4.11557 0.0312,-5.0625 -0.83426,-1.89386 -1.74122,-2.80391 -3.09375,-4.5 -1.35253,-1.69609 -3.13209,-3.86834 -5.4375,-6.78125 -20.35058,-25.71324 -54.0625,-26.40625 -54.0625,-26.40625 a 5.0005,5.0005 0 0 0 -0.5,0 z"
           style="font-size:medium;font-style:normal;font-variant:normal;font-weight:normal;font-stretch:normal;text-indent:0;text-align:start;text-decoration:none;line-height:normal;letter-spacing:normal;word-spacing:normal;text-transform:none;direction:ltr;block-progression:tb;writing-mode:lr-tb;text-anchor:start;baseline-shift:baseline;color:#000000;fill:#000000;fill-opacity:1;stroke:none;stroke-width:10;marker:none;visibility:visible;display:inline;overflow:visible;enable-background:accumulate;font-family:Sans;-inkscape-font-specification:Sans" />
        <path
           sodipodi:nodetypes="cccccccccccccc"
           inkscape:connector-curvature="0"
           id="path4668"
           d="m 566.28125,383.75 -1.90625,1.03125 -17.5625,9.53125 -1.90625,1.03125 1.84375,1.125 17,10.46875 1.84375,1.15625 0.0625,-2.1875 0.5625,-19.96875 z m -4.89784,10.08963 1.20399,2.27173 -1.82201,-0.76888 z"
           style="font-size:medium;font-style:normal;font-variant:normal;font-weight:normal;font-stretch:normal;text-indent:0;text-align:start;text-decoration:none;line-height:normal;letter-spacing:normal;word-spacing:normal;text-transform:none;direction:ltr;block-progression:tb;writing-mode:lr-tb;text-anchor:start;baseline-shift:baseline;color:#000000;fill:#000000;fill-opacity:1;fill-rule:evenodd;stroke:none;stroke-width:2pt;marker:none;visibility:visible;display:inline;overflow:visible;enable-background:accumulate;font-family:Sans;-inkscape-font-specification:Sans" />
      </g>
    </g>
  </g>
</svg>
